# Blender v2.80 (sub 75) OBJ File: 'character_model.blend'
# www.blender.org
mtllib character_model.mtl
o Jewel
v 0.006693 0.002210 0.006739
v -0.005658 0.002291 0.008362
v -0.007282 0.002210 -0.003990
v 0.005070 0.002129 -0.005613
v 0.008803 0.378618 0.003990
v 0.007180 0.378537 -0.008362
v -0.005172 0.378618 -0.006739
v -0.003548 0.378699 0.005613
v 0.010090 0.198707 0.118394
v 0.010006 0.183747 0.118503
v 0.022358 0.183666 0.116880
v 0.022441 0.198625 0.116771
v -0.117731 0.183666 0.009337
v -0.116107 0.183747 0.021688
v -0.116023 0.198707 0.021579
v -0.117647 0.198625 0.009228
v -0.008568 0.182121 -0.118394
v -0.020920 0.182202 -0.116771
v -0.020836 0.197162 -0.116880
v -0.008485 0.197081 -0.118503
v 0.119168 0.182202 -0.009228
v 0.117545 0.182121 -0.021579
v 0.117628 0.197081 -0.021688
v 0.119252 0.197162 -0.009337
vt 0.862268 0.511171
vt 0.869173 0.339901
vt 0.990679 0.458018
vt 0.697315 0.184645
vt 0.753045 0.000164
vt 0.840694 0.171794
vt 0.843621 0.515893
vt 0.787892 0.700373
vt 0.700244 0.528744
vt 0.862268 0.180793
vt 0.869173 0.009522
vt 0.990679 0.127640
vt 0.999836 0.330215
vt 0.865911 0.193942
vt 0.997700 0.139161
vt 0.770251 0.343996
vt 0.700255 0.197695
vt 0.841922 0.186072
vt 0.999836 0.660594
vt 0.865911 0.524321
vt 0.997700 0.469540
vt 0.770686 0.356543
vt 0.778413 0.350141
vt 0.858666 0.006269
vt 0.874110 0.000164
vt 0.999836 0.120619
vt 0.853958 0.526681
vt 0.689660 0.201143
vt 0.853958 0.196302
vt 0.851276 0.499396
vt 0.840682 0.502844
vt 0.858666 0.336648
vt 0.999836 0.450998
vt 0.874110 0.330543
vt 0.762525 0.350398
vt 0.699015 0.514466
vt 0.689662 0.510201
vt 0.851276 0.190337
vt 0.851604 0.512323
vt 0.851604 0.181944
vn -0.7238 0.4026 -0.5603
vn 0.5596 0.3942 -0.7290
vn -0.5551 0.4110 0.7231
vn 0.7283 0.4026 0.5545
vn 0.7238 -0.4026 0.5603
vn 0.5551 -0.4110 -0.7231
vn -0.7283 -0.4026 -0.5545
vn -0.0056 -1.0000 0.0073
vn 0.0056 1.0000 -0.0073
vn 0.1303 0.0065 0.9915
vn -0.9915 0.0065 0.1303
vn -0.1303 -0.0065 -0.9915
vn 0.9915 -0.0065 -0.1303
vn 0.1136 0.5337 0.8380
vn 0.1077 -0.5226 0.8457
vn 0.7932 -0.0000 0.6089
vn 0.6089 -0.0092 -0.7932
vn -0.7932 0.0000 -0.6089
vn -0.6089 0.0092 0.7932
vn -0.8389 0.5337 0.1068
vn -0.1077 0.5226 -0.8457
vn 0.8448 0.5226 -0.1145
vn -0.8448 -0.5226 0.1145
vn -0.1136 -0.5337 -0.8380
vn 0.8389 -0.5337 -0.1068
vn -0.5596 -0.3942 0.7290
usemtl Jewel
s off
f 16/1/1 7/2/1 19/3/1
f 20/4/2 6/5/2 23/6/2
f 9/7/3 8/8/3 15/9/3
f 24/10/4 5/11/4 12/12/4
f 1/13/5 21/14/5 11/15/5
f 4/16/6 17/17/6 22/18/6
f 3/19/7 13/20/7 18/21/7
f 2/22/8 4/16/8 1/23/8
f 6/24/9 8/25/9 5/11/9
f 9/26/10 11/15/10 12/12/10
f 14/27/11 16/1/11 13/20/11
f 18/28/12 20/4/12 17/17/12
f 22/29/13 24/10/13 21/14/13
f 5/11/14 9/26/14 12/12/14
f 11/30/15 2/22/15 1/23/15
f 12/12/16 21/14/16 24/10/16
f 23/6/17 17/17/17 20/4/17
f 19/3/18 13/20/18 16/1/18
f 15/9/19 10/31/19 9/7/19
f 16/1/20 8/32/20 7/2/20
f 20/33/21 7/2/21 6/34/21
f 24/10/22 6/24/22 5/11/22
f 3/35/23 14/36/23 13/37/23
f 4/16/24 18/28/24 17/17/24
f 1/23/25 22/18/25 21/38/25
f 2/22/26 10/31/26 14/36/26
f 2/22/8 3/35/8 4/16/8
f 6/34/9 7/2/9 8/32/9
f 9/7/10 10/31/10 11/30/10
f 14/27/11 15/39/11 16/1/11
f 18/21/12 19/3/12 20/33/12
f 22/29/13 23/40/13 24/10/13
f 5/11/14 8/25/14 9/26/14
f 11/30/15 10/31/15 2/22/15
f 12/12/16 11/15/16 21/14/16
f 23/6/17 22/18/17 17/17/17
f 19/3/18 18/21/18 13/20/18
f 15/9/19 14/36/19 10/31/19
f 16/1/20 15/39/20 8/32/20
f 20/33/21 19/3/21 7/2/21
f 24/10/22 23/40/22 6/24/22
f 3/35/23 2/22/23 14/36/23
f 4/16/24 3/35/24 18/28/24
f 1/23/25 4/16/25 22/18/25
