{
    "asset" : {
        "generator" : "Khronos glTF Blender I/O v0.9.36",
        "version" : "2.0"
    },
    "scene" : 0,
    "scenes" : [
        {
            "name" : "Scene",
            "nodes" : [
                0
            ]
        }
    ],
    "nodes" : [
        {
            "mesh" : 0,
            "name" : "Jewel",
            "rotation" : [
                0,
                0,
                0.027213240042328835,
                0.9996296763420105
            ],
            "translation" : [
                0.0007606139406561852,
                0.19041383266448975,
                0
            ]
        }
    ],
    "animations" : [
        {
            "channels" : [
                {
                    "sampler" : 0,
                    "target" : {
                        "node" : 0,
                        "path" : "rotation"
                    }
                }
            ],
            "name" : "Idle",
            "samplers" : [
                {
                    "input" : 4,
                    "interpolation" : "LINEAR",
                    "output" : 5
                }
            ]
        }
    ],
    "materials" : [
        {
            "doubleSided" : true,
            "emissiveFactor" : [
                1,
                1,
                1
            ],
            "emissiveTexture" : {
                "index" : 0,
                "texCoord" : 0
            },
            "name" : "Jewel",
            "pbrMetallicRoughness" : {}
        }
    ],
    "meshes" : [
        {
            "name" : "Jewel",
            "primitives" : [
                {
                    "attributes" : {
                        "POSITION" : 0,
                        "NORMAL" : 1,
                        "TEXCOORD_0" : 2
                    },
                    "indices" : 3,
                    "material" : 0
                }
            ]
        }
    ],
    "textures" : [
        {
            "source" : 0
        }
    ],
    "images" : [
        {
            "bufferView" : 4,
            "mimeType" : "image/png",
            "name" : "GemUV"
        }
    ],
    "accessors" : [
        {
            "bufferView" : 0,
            "componentType" : 5126,
            "count" : 132,
            "max" : [
                0.0886007621884346,
                0.18839110434055328,
                0.08830385655164719
            ],
            "min" : [
                -0.0886007621884346,
                -0.1883910447359085,
                -0.08830385655164719
            ],
            "type" : "VEC3"
        },
        {
            "bufferView" : 1,
            "componentType" : 5126,
            "count" : 132,
            "type" : "VEC3"
        },
        {
            "bufferView" : 2,
            "componentType" : 5126,
            "count" : 132,
            "type" : "VEC2"
        },
        {
            "bufferView" : 3,
            "componentType" : 5123,
            "count" : 132,
            "type" : "SCALAR"
        },
        {
            "bufferView" : 5,
            "componentType" : 5126,
            "count" : 2,
            "max" : [
                3.3333333333333335
            ],
            "min" : [
                0.041666666666666664
            ],
            "type" : "SCALAR"
        },
        {
            "bufferView" : 6,
            "componentType" : 5126,
            "count" : 2,
            "type" : "VEC4"
        }
    ],
    "bufferViews" : [
        {
            "buffer" : 0,
            "byteLength" : 1584,
            "byteOffset" : 0
        },
        {
            "buffer" : 0,
            "byteLength" : 1584,
            "byteOffset" : 1584
        },
        {
            "buffer" : 0,
            "byteLength" : 1056,
            "byteOffset" : 3168
        },
        {
            "buffer" : 0,
            "byteLength" : 264,
            "byteOffset" : 4224
        },
        {
            "buffer" : 0,
            "byteLength" : 300069,
            "byteOffset" : 4488
        },
        {
            "buffer" : 0,
            "byteLength" : 8,
            "byteOffset" : 304560
        },
        {
            "buffer" : 0,
            "byteLength" : 32,
            "byteOffset" : 304568
        }
    ],
    "buffers" : [
        {
            "byteLength" : 304600,
            "uri" : "data:application/octet-stream;base64,"
        }
    ]
}
