{
    "asset" : {
        "generator" : "Khronos glTF Blender I/O v0.9.36",
        "version" : "2.0"
    },
    "scene" : 0,
    "scenes" : [
        {
            "name" : "Scene",
            "nodes" : [
                0,
                1
            ]
        }
    ],
    "nodes" : [
        {
            "mesh" : 0,
            "name" : "Plane",
            "scale" : [
                100,
                100,
                100
            ]
        },
        {
            "mesh" : 1,
            "name" : "Plane -colonly",
            "scale" : [
                100,
                100,
                100
            ]
        }
    ],
    "materials" : [
        {
            "doubleSided" : true,
            "name" : "TerrainShader",
            "pbrMetallicRoughness" : {}
        }
    ],
    "meshes" : [
        {
            "name" : "Plane.001",
            "primitives" : [
                {
                    "attributes" : {
                        "POSITION" : 0,
                        "NORMAL" : 1,
                        "TEXCOORD_0" : 2
                    },
                    "indices" : 3,
                    "material" : 0
                }
            ]
        },
        {
            "name" : "Plane.002",
            "primitives" : [
                {
                    "attributes" : {
                        "POSITION" : 4,
                        "NORMAL" : 5,
                        "TEXCOORD_0" : 6
                    },
                    "indices" : 3
                }
            ]
        }
    ],
    "accessors" : [
        {
            "bufferView" : 0,
            "componentType" : 5126,
            "count" : 25990,
            "max" : [
                1,
                0.05999999865889549,
                1
            ],
            "min" : [
                -1,
                -0.04187188670039177,
                -1
            ],
            "type" : "VEC3"
        },
        {
            "bufferView" : 1,
            "componentType" : 5126,
            "count" : 25990,
            "type" : "VEC3"
        },
        {
            "bufferView" : 2,
            "componentType" : 5126,
            "count" : 25990,
            "type" : "VEC2"
        },
        {
            "bufferView" : 3,
            "componentType" : 5123,
            "count" : 26136,
            "type" : "SCALAR"
        },
        {
            "bufferView" : 4,
            "componentType" : 5126,
            "count" : 25990,
            "max" : [
                1,
                0.05999999865889549,
                1
            ],
            "min" : [
                -1,
                -0.04187188670039177,
                -1
            ],
            "type" : "VEC3"
        },
        {
            "bufferView" : 5,
            "componentType" : 5126,
            "count" : 25990,
            "type" : "VEC3"
        },
        {
            "bufferView" : 6,
            "componentType" : 5126,
            "count" : 25990,
            "type" : "VEC2"
        }
    ],
    "bufferViews" : [
        {
            "buffer" : 0,
            "byteLength" : 311880,
            "byteOffset" : 0
        },
        {
            "buffer" : 0,
            "byteLength" : 311880,
            "byteOffset" : 311880
        },
        {
            "buffer" : 0,
            "byteLength" : 207920,
            "byteOffset" : 623760
        },
        {
            "buffer" : 0,
            "byteLength" : 52272,
            "byteOffset" : 831680
        },
        {
            "buffer" : 0,
            "byteLength" : 311880,
            "byteOffset" : 883952
        },
        {
            "buffer" : 0,
            "byteLength" : 311880,
            "byteOffset" : 1195832
        },
        {
            "buffer" : 0,
            "byteLength" : 207920,
            "byteOffset" : 1507712
        }
    ],
    "buffers" : [
        {
            "byteLength" : 1715632,
            "uri" : "data:application/octet-stream;base64,"
        }
    ]
}
