{
    "asset" : {
        "generator" : "Khronos glTF Blender I/O v0.9.36",
        "version" : "2.0"
    },
    "scene" : 1,
    "scenes" : [
        {
            "name" : "demo",
            "nodes" : [
                0,
                1
            ]
        },
        {
            "name" : "Scene"
        }
    ],
    "nodes" : [
        {
            "mesh" : 0,
            "name" : "checker",
            "scale" : [
                2,
                1,
                2
            ]
        },
        {
            "mesh" : 1,
            "name" : "checker -colonly",
            "scale" : [
                2,
                1,
                2
            ]
        }
    ],
    "materials" : [
        {
            "doubleSided" : true,
            "name" : "checkered",
            "pbrMetallicRoughness" : {
                "baseColorTexture" : {
                    "index" : 0,
                    "texCoord" : 0
                },
                "metallicFactor" : 0,
                "roughnessFactor" : 0.5
            }
        }
    ],
    "meshes" : [
        {
            "name" : "Plane",
            "primitives" : [
                {
                    "attributes" : {
                        "POSITION" : 0,
                        "NORMAL" : 1,
                        "TANGENT" : 2,
                        "TEXCOORD_0" : 3
                    },
                    "indices" : 4,
                    "material" : 0
                },
                {
                    "attributes" : {
                        "POSITION" : 5,
                        "NORMAL" : 6,
                        "TANGENT" : 7,
                        "TEXCOORD_0" : 8
                    },
                    "indices" : 9
                }
            ]
        },
        {
            "name" : "Plane.004",
            "primitives" : [
                {
                    "attributes" : {
                        "POSITION" : 10,
                        "NORMAL" : 11,
                        "TANGENT" : 12,
                        "TEXCOORD_0" : 13
                    },
                    "indices" : 4,
                    "material" : 0
                },
                {
                    "attributes" : {
                        "POSITION" : 14,
                        "NORMAL" : 15,
                        "TANGENT" : 16,
                        "TEXCOORD_0" : 17
                    },
                    "indices" : 9
                }
            ]
        }
    ],
    "textures" : [
        {
            "source" : 0
        }
    ],
    "images" : [
        {
            "bufferView" : 5,
            "mimeType" : "image/png",
            "name" : "checkered"
        }
    ],
    "accessors" : [
        {
            "bufferView" : 0,
            "componentType" : 5126,
            "count" : 126,
            "max" : [
                5.5,
                1,
                5.5
            ],
            "min" : [
                -5.5,
                0,
                -5.5
            ],
            "type" : "VEC3"
        },
        {
            "bufferView" : 1,
            "componentType" : 5126,
            "count" : 126,
            "type" : "VEC3"
        },
        {
            "bufferView" : 2,
            "componentType" : 5126,
            "count" : 126,
            "type" : "VEC4"
        },
        {
            "bufferView" : 3,
            "componentType" : 5126,
            "count" : 126,
            "type" : "VEC2"
        },
        {
            "bufferView" : 4,
            "componentType" : 5123,
            "count" : 126,
            "type" : "SCALAR"
        },
        {
            "bufferView" : 6,
            "componentType" : 5126,
            "count" : 5937,
            "max" : [
                3.249999523162842,
                1,
                3.25
            ],
            "min" : [
                -3.25,
                0,
                -3.25
            ],
            "type" : "VEC3"
        },
        {
            "bufferView" : 7,
            "componentType" : 5126,
            "count" : 5937,
            "type" : "VEC3"
        },
        {
            "bufferView" : 8,
            "componentType" : 5126,
            "count" : 5937,
            "type" : "VEC4"
        },
        {
            "bufferView" : 9,
            "componentType" : 5126,
            "count" : 5937,
            "type" : "VEC2"
        },
        {
            "bufferView" : 10,
            "componentType" : 5123,
            "count" : 5952,
            "type" : "SCALAR"
        },
        {
            "bufferView" : 11,
            "componentType" : 5126,
            "count" : 126,
            "max" : [
                5.5,
                1,
                5.5
            ],
            "min" : [
                -5.5,
                0,
                -5.5
            ],
            "type" : "VEC3"
        },
        {
            "bufferView" : 12,
            "componentType" : 5126,
            "count" : 126,
            "type" : "VEC3"
        },
        {
            "bufferView" : 13,
            "componentType" : 5126,
            "count" : 126,
            "type" : "VEC4"
        },
        {
            "bufferView" : 14,
            "componentType" : 5126,
            "count" : 126,
            "type" : "VEC2"
        },
        {
            "bufferView" : 15,
            "componentType" : 5126,
            "count" : 5937,
            "max" : [
                3.249999523162842,
                1,
                3.25
            ],
            "min" : [
                -3.25,
                0,
                -3.25
            ],
            "type" : "VEC3"
        },
        {
            "bufferView" : 16,
            "componentType" : 5126,
            "count" : 5937,
            "type" : "VEC3"
        },
        {
            "bufferView" : 17,
            "componentType" : 5126,
            "count" : 5937,
            "type" : "VEC4"
        },
        {
            "bufferView" : 18,
            "componentType" : 5126,
            "count" : 5937,
            "type" : "VEC2"
        }
    ],
    "bufferViews" : [
        {
            "buffer" : 0,
            "byteLength" : 1512,
            "byteOffset" : 0
        },
        {
            "buffer" : 0,
            "byteLength" : 1512,
            "byteOffset" : 1512
        },
        {
            "buffer" : 0,
            "byteLength" : 2016,
            "byteOffset" : 3024
        },
        {
            "buffer" : 0,
            "byteLength" : 1008,
            "byteOffset" : 5040
        },
        {
            "buffer" : 0,
            "byteLength" : 252,
            "byteOffset" : 6048
        },
        {
            "buffer" : 0,
            "byteLength" : 50731,
            "byteOffset" : 6300
        },
        {
            "buffer" : 0,
            "byteLength" : 71244,
            "byteOffset" : 57032
        },
        {
            "buffer" : 0,
            "byteLength" : 71244,
            "byteOffset" : 128276
        },
        {
            "buffer" : 0,
            "byteLength" : 94992,
            "byteOffset" : 199520
        },
        {
            "buffer" : 0,
            "byteLength" : 47496,
            "byteOffset" : 294512
        },
        {
            "buffer" : 0,
            "byteLength" : 11904,
            "byteOffset" : 342008
        },
        {
            "buffer" : 0,
            "byteLength" : 1512,
            "byteOffset" : 353912
        },
        {
            "buffer" : 0,
            "byteLength" : 1512,
            "byteOffset" : 355424
        },
        {
            "buffer" : 0,
            "byteLength" : 2016,
            "byteOffset" : 356936
        },
        {
            "buffer" : 0,
            "byteLength" : 1008,
            "byteOffset" : 358952
        },
        {
            "buffer" : 0,
            "byteLength" : 71244,
            "byteOffset" : 359960
        },
        {
            "buffer" : 0,
            "byteLength" : 71244,
            "byteOffset" : 431204
        },
        {
            "buffer" : 0,
            "byteLength" : 94992,
            "byteOffset" : 502448
        },
        {
            "buffer" : 0,
            "byteLength" : 47496,
            "byteOffset" : 597440
        }
    ],
    "buffers" : [
        {
            "byteLength" : 644936,
            "uri" : "data:application/octet-stream;base64,"
        }
    ]
}
